<?xml version="1.0" standalone="no"?>
<!DOCTYPE svg PUBLIC "-//W3C//DTD SVG 20010904//EN"
 "http://www.w3.org/TR/2001/REC-SVG-20010904/DTD/svg10.dtd">
<svg version="1.0" xmlns="http://www.w3.org/2000/svg"
 width="160.000000pt" height="160.000000pt" viewBox="0 0 160.000000 160.000000"
 preserveAspectRatio="xMidYMid meet">
<metadata>
Created by potrace 1.14, written by Peter Selinger 2001-2017
</metadata>
<g transform="translate(0.000000,160.000000) scale(0.100000,-0.100000)"
fill="#000000" stroke="none">
<path d="M708 1430 c-236 -40 -446 -218 -519 -441 -35 -107 -35 -282 0 -388
32 -98 97 -196 130 -196 37 0 50 29 28 62 -64 98 -123 279 -102 313 13 21 74
10 120 -22 38 -27 54 -32 98 -31 l52 1 24 -54 c30 -69 103 -136 179 -164 166
-63 359 40 404 215 7 28 17 53 23 57 22 16 62 6 109 -27 38 -27 59 -35 93 -35
51 0 53 -8 24 -91 -30 -89 -67 -153 -120 -211 -175 -192 -452 -241 -696 -123
-82 39 -97 42 -115 20 -17 -21 -7 -40 37 -68 210 -132 499 -124 714 18 198
132 310 370 281 597 -16 126 -19 131 -97 123 -55 -6 -71 -4 -110 15 -60 29
-95 87 -95 157 0 58 -16 78 -56 70 -36 -7 -102 10 -132 34 -38 30 -54 57 -67
113 -9 40 -16 52 -36 57 -32 9 -113 9 -171 -1z m147 -116 c10 -25 31 -62 49
-82 34 -39 116 -82 157 -82 23 0 27 -5 33 -42 19 -118 128 -208 252 -208 l44
0 0 -45 c0 -39 -3 -45 -24 -51 -14 -3 -36 1 -53 10 -87 48 -117 58 -153 52
-36 -6 -37 -5 -49 35 -19 62 -111 151 -186 179 -170 63 -361 -38 -407 -215 -7
-27 -17 -53 -23 -57 -22 -16 -67 -6 -109 24 -36 25 -56 32 -95 32 -49 1 -49 1
-44 31 27 140 121 279 248 364 96 64 193 97 296 100 46 1 46 1 64 -45z m60
-313 c179 -82 179 -330 0 -412 -52 -24 -138 -24 -190 0 -223 102 -151 431 95
431 32 0 72 -8 95 -19z"/>
<path d="M534 1236 c-9 -24 4 -48 23 -44 12 2 18 12 18 28 0 29 -32 41 -41 16z"/>
<path d="M756 1207 c-21 -16 -18 -45 7 -61 37 -23 77 35 41 61 -10 7 -21 13
-24 13 -3 0 -14 -6 -24 -13z"/>
<path d="M542 1063 c5 -25 28 -28 28 -4 0 12 -6 21 -16 21 -9 0 -14 -7 -12
-17z"/>
<path d="M331 1011 c-21 -38 12 -71 50 -50 31 16 22 63 -13 67 -18 2 -30 -3
-37 -17z"/>
</g>
</svg>
